# xmcd CD database file
# Copyright (C) 1993-1998 Ti Kan
#
# Track frame offsets:
#	183
#	11800
#	23698
#	33733
#	43543
#	57725
#	67598
#	77100
#	85738
#	97435
#	108065
#	118543
#
# Disc length: 1775 seconds
#
# Revision: 1
# Processed by: cddbd v1.4b41PL1 Copyright (c) Steve Scherf et al.
# Submitted via: CDValet v3.31 - Copyright (c) 1997 Greg Leichner
#
DISCID=9606ed0c
DTITLE=Isley Brothers - At Their Best
DYEAR=1900
DGENRE=
TTITLE0=Twist And Shout
TTITLE1=Time After Time
TTITLE2=The Snake
TTITLE3=Let's Twist Again
TTITLE4=Don't You Feel
TTITLE5=Nobody But Me
TTITLE6=I Say Love
TTITLE7=I'm Laughing To Keep From Crying
TTITLE8=Twistin' With Linda
TTITLE9=Never Leave Me Baby
TTITLE10=You Better Come Home
TTITLE11=Right Now
EXTD=
EXTT0=
EXTT1=
EXTT2=
EXTT3=
EXTT4=
EXTT5=
EXTT6=
EXTT7=
EXTT8=
EXTT9=
EXTT10=
EXTT11=
PLAYORDER=
